<svg xmlns="http://www.w3.org/2000/svg" width="1280" height="239" viewBox="0 0 1280 239" version="1.1"><path d="M 90.741 74.368 C 79.786 78.455, 73.020 88.243, 73.020 100 C 73.020 114.837, 83.215 125.710, 98.127 126.777 C 103.702 127.176, 105.633 126.857, 110.141 124.793 C 120.795 119.916, 126.432 111.337, 126.432 100 C 126.432 89.281, 121.170 80.681, 111.634 75.812 C 106.406 73.142, 95.961 72.420, 90.741 74.368 M 95.500 89.403 C 90.488 91.615, 88.500 94.632, 88.500 100.024 C 88.500 105.758, 91.314 109.414, 97.046 111.132 C 100.065 112.036, 101.364 111.921, 104.400 110.480 C 113.099 106.353, 113.246 93.717, 104.643 89.635 C 100.543 87.689, 99.444 87.662, 95.500 89.403 M 188.415 89.421 C 178.435 93.767, 178.637 106.443, 188.754 110.670 C 193.151 112.508, 197.914 111.079, 201.467 106.857 C 206.382 101.015, 203.905 92.529, 196.364 89.379 C 192.402 87.723, 192.314 87.724, 188.415 89.421 M 122.112 137.575 C 111.521 145.536, 99.737 160.813, 96.461 170.829 C 92.457 183.071, 98.639 190.706, 116.500 195.575 C 124.454 197.743, 158.164 198.698, 170.204 197.096 C 190.056 194.454, 200 187.771, 200 177.070 C 200 166.962, 186.213 147.046, 171.866 136.429 C 166.578 132.516, 165.494 132.185, 166.965 134.934 C 168.713 138.201, 168.198 147.691, 166.044 151.914 C 163.948 156.022, 159.061 160.646, 155.306 162.074 C 153.051 162.931, 153 163.258, 153 176.775 C 153 186.194, 152.618 190.982, 151.800 191.800 C 149.846 193.754, 144.222 193.283, 143.035 191.066 C 142.466 190.002, 142 183.286, 142 176.141 L 142 163.150 137.794 160.825 C 131.561 157.379, 127.724 151.336, 127.204 144.145 C 126.954 140.692, 127.270 137.364, 127.971 136.054 C 129.949 132.359, 128.577 132.715, 122.112 137.575" stroke="none" fill="#ffffff" fill-rule="evenodd"/><path d="M 57.162 1.992 C 49.179 4.865, 44.040 8.207, 38.338 14.237 C 29.007 24.102, 25 34.901, 25 50.182 L 25 60 16.904 60 C 4.590 60, 0 63.789, -0 73.954 C -0 84.571, 4.019 88, 16.465 88 L 25 88 25 121 L 25 154 17.450 154 C 5.380 154, 0.011 158.400, 0.004 168.300 C -0.004 178.590, 5.159 182.990, 17.250 182.996 L 25 183 25 208.365 C 25 232.512, 25.100 233.857, 27.073 236.365 L 29.145 239 125.458 239 C 214.032 239, 222.201 238.861, 227.135 237.270 C 239.042 233.430, 251.504 221.777, 256.256 210.042 L 258.500 204.500 258.779 121 C 259.058 37.615, 259.055 37.492, 256.898 31.500 C 251.664 16.959, 241.468 6.874, 227.110 2.037 C 221.224 0.054, 218.950 0.001, 141.782 0.036 C 66.168 0.070, 62.253 0.161, 57.162 1.992 M 91.205 73.838 C 84.149 76.350, 79.368 80.392, 75.605 87.025 C 72.884 91.822, 72.503 93.428, 72.523 100 C 72.548 108.018, 74.230 112.554, 79.498 118.815 C 82.725 122.650, 91.005 126.775, 97.155 127.612 C 107.464 129.015, 119.877 121.754, 124.634 111.538 C 127.611 105.146, 127.820 95.403, 125.110 89.435 C 119.061 76.117, 104.114 69.241, 91.205 73.838 M 186.190 90.026 C 175.894 96.303, 180.528 112, 192.677 112 C 196.472 112, 197.738 111.462, 200.541 108.659 C 204.268 104.932, 205.548 101.318, 204.549 97.341 C 204.182 95.879, 202.379 93.179, 200.541 91.341 C 196.535 87.335, 191.378 86.862, 186.190 90.026 M 94.500 90.161 C 88.552 93.431, 86.927 102.471, 91.415 107.314 C 96.294 112.578, 104.762 111.985, 108.716 106.102 C 111.524 101.924, 111.605 98.504, 108.996 94.225 C 106.053 89.399, 99.319 87.511, 94.500 90.161 M 138.234 124.113 C 135.888 125.274, 133.121 127.302, 132.085 128.619 C 131.049 129.936, 127.569 132.961, 124.351 135.342 C 117.121 140.689, 106.746 151.639, 101.716 159.231 C 84.533 185.163, 100.637 199, 148 199 C 191.027 199, 207.955 187.535, 197.162 165.704 C 193.008 157.301, 182.052 143.865, 174.711 138.171 C 171.399 135.602, 166.583 131.596, 164.010 129.268 C 161.437 126.941, 157.696 124.353, 155.698 123.518 C 150.527 121.358, 143.303 121.604, 138.234 124.113" stroke="none" fill="#9b66fd" fill-rule="evenodd"/><path d="M 140.734 123.375 C 138.662 124.145, 134.837 126.703, 132.234 129.058 C 129.630 131.414, 127.327 133.475, 127.115 133.639 C 126.903 133.803, 127.693 133.752, 128.870 133.525 C 130.694 133.174, 130.862 133.390, 130.005 134.991 C 129.452 136.024, 128.947 138.136, 128.882 139.684 L 128.763 142.500 128 139.500 C 127.397 137.132, 127.233 137.763, 127.218 142.500 C 127.204 146.900, 127.413 147.833, 128 146 C 128.795 143.516, 128.802 143.519, 129.079 146.500 C 129.231 148.150, 129.356 150.261, 129.355 151.191 C 129.354 152.121, 129.837 152.796, 130.427 152.691 C 131.017 152.586, 131.442 153.260, 131.371 154.190 C 131.300 155.119, 132.385 156.919, 133.782 158.190 C 135.179 159.460, 135.962 159.879, 135.522 159.120 C 134.971 158.171, 135.155 157.898, 136.111 158.245 C 136.875 158.523, 137.376 159.290, 137.225 159.949 C 137.074 160.609, 137.408 160.866, 137.967 160.520 C 139.060 159.845, 142.238 161.248, 142.090 162.340 C 142.040 162.703, 142.093 169.188, 142.207 176.750 L 142.414 190.500 143.024 176.500 L 143.635 162.500 143.717 177.316 C 143.762 185.465, 144.142 192.440, 144.560 192.816 C 144.978 193.192, 144.997 192.938, 144.601 192.250 C 143.741 190.755, 143.681 190.761, 147.743 191.926 C 149.915 192.549, 151.190 192.502, 151.635 191.782 C 151.999 191.192, 152.200 184.476, 152.081 176.855 C 151.930 167.124, 152.201 163, 152.992 163 C 153.611 163, 153.860 162.582, 153.544 162.072 C 152.958 161.123, 156.302 159.558, 159 159.519 C 159.825 159.507, 160.500 158.973, 160.500 158.332 C 160.500 156.847, 161.831 155.506, 163.333 155.478 C 163.975 155.465, 164.357 154.633, 164.183 153.627 C 163.995 152.544, 164.296 152.065, 164.922 152.452 C 165.585 152.862, 165.732 152.466, 165.319 151.388 C 164.898 150.292, 165.049 149.912, 165.737 150.337 C 166.429 150.765, 166.637 150.200, 166.320 148.751 C 166.023 147.394, 166.159 146.959, 166.663 147.655 C 167.146 148.320, 167.500 146.112, 167.500 142.442 C 167.500 138.940, 167.234 136.833, 166.909 137.759 C 166.476 138.995, 166.164 138.652, 165.741 136.472 C 165.424 134.837, 165.538 133.363, 165.995 133.196 C 167.195 132.756, 160.508 126.314, 156.930 124.464 C 152.589 122.219, 145.180 121.721, 140.734 123.375 M 141.250 198.742 C 144.963 198.934, 151.037 198.934, 154.750 198.742 C 158.463 198.549, 155.425 198.392, 148 198.392 C 140.575 198.392, 137.537 198.549, 141.250 198.742" stroke="none" fill="#ae82ff" fill-rule="evenodd"/><path d="M 1248 118.500 L 1248 186 1264 186 L 1280 186 1280 118.500 L 1280 51 1264 51 L 1248 51 1248 118.500 M 383 120.427 L 383 186 400 186 L 417 186 417 167.500 L 417 149 438.272 149 C 467.607 149, 475.352 146.722, 486.654 134.773 C 495.201 125.735, 498.967 116.176, 498.988 103.460 C 499.024 82.101, 486.448 64.356, 466.500 57.619 C 460.971 55.752, 457.456 55.564, 421.750 55.224 L 383 54.855 383 120.427 M 630.400 78.968 L 627.539 92.935 617.519 93.218 L 607.500 93.500 607.500 106.500 L 607.500 119.500 617.178 119.785 L 626.856 120.071 627.178 140.785 C 627.471 159.607, 627.701 161.934, 629.694 166.251 C 632.967 173.338, 640.969 181.250, 648.278 184.626 C 654.389 187.449, 654.815 187.500, 672.201 187.500 C 682.737 187.500, 690.263 187.095, 690.796 186.500 C 691.722 185.466, 689.805 159.472, 688.724 158.391 C 688.402 158.068, 685.835 158.299, 683.020 158.902 C 670.684 161.548, 662.775 159.132, 660.306 151.965 C 659.613 149.951, 659.089 142.534, 659.056 134.250 L 659 120 674.833 120 C 683.542 120, 690.854 119.814, 691.083 119.587 C 691.313 119.360, 691.362 113.285, 691.194 106.087 L 690.889 93 674.944 93 L 659 93 659 79 L 659 65 646.131 65 L 633.262 65 630.400 78.968 M 417 103.078 L 417 119.156 435.930 118.828 C 456.626 118.469, 457.497 118.233, 462.422 111.637 C 465.357 107.705, 465.253 98.763, 462.214 93.846 C 458.556 87.927, 454.799 87, 434.480 87 L 417 87 417 103.078 M 536.500 92.809 C 527.474 95.489, 520.435 99.763, 514.514 106.158 C 505.022 116.411, 501.419 127.109, 502.231 142.633 C 502.649 150.610, 503.208 152.905, 506.342 159.505 C 512.921 173.359, 525.767 182.938, 542.529 186.489 C 551.353 188.358, 570.477 188.394, 579.139 186.558 C 588.621 184.548, 596 181.194, 596 178.893 C 596 176.962, 591.041 152.719, 590.542 152.213 C 590.387 152.056, 586.714 153.156, 582.380 154.659 C 575.553 157.026, 572.896 157.398, 562.500 157.446 C 551.298 157.496, 550.117 157.312, 544.744 154.674 C 541.579 153.119, 538.585 151.094, 538.092 150.174 C 537.261 148.622, 539.557 148.520, 569.533 148.777 L 601.869 149.053 602.594 144.277 C 603.494 138.342, 601.810 126.228, 599.078 118.976 C 594.909 107.913, 585.243 98.567, 573.104 93.862 C 565.222 90.807, 545.185 90.231, 536.500 92.809 M 735.275 92.539 C 722.158 96.072, 709.296 105.920, 704.137 116.381 C 696.850 131.156, 697.349 151.295, 705.327 164.360 C 711.822 174.998, 725.358 184.479, 737.711 187.044 C 746.149 188.796, 764.002 187.758, 771.500 185.081 C 784.158 180.560, 795.314 169.700, 800.012 157.324 C 802.748 150.117, 803.709 136.722, 802.059 128.781 C 798.426 111.291, 784.618 97.293, 766.356 92.584 C 758.755 90.624, 742.471 90.601, 735.275 92.539 M 992.079 92.643 C 984.337 95.353, 976.631 101.490, 971.744 108.837 C 970.194 111.168, 970.180 111.157, 966.231 104.337 C 964.054 100.577, 961.745 96.487, 961.101 95.250 C 960.019 93.171, 959.248 93, 950.965 93 L 942 93 942 139.500 L 942 186 957.919 186 L 973.839 186 974.190 162.750 C 974.566 137.872, 975.144 134.694, 980.298 129.165 C 983.543 125.683, 991.389 122.008, 998.100 120.826 L 1004 119.786 1004 105.393 L 1004 91 1000.250 91.048 C 998.188 91.074, 994.511 91.792, 992.079 92.643 M 1066.500 92.347 C 1059.174 94.771, 1054.536 97.740, 1049.105 103.482 C 1045.047 107.773, 1043.507 108.843, 1042.840 107.836 C 1042.353 107.101, 1040.277 103.466, 1038.227 99.757 L 1034.500 93.013 1025.250 93.007 L 1016 93 1016 139.500 L 1016 186 1032.500 186 L 1049 186 1049 160.157 C 1049 135.109, 1049.071 134.181, 1051.303 129.960 C 1055.615 121.806, 1067.120 118.573, 1076.500 122.881 C 1086.037 127.260, 1086.901 130.432, 1086.956 161.250 L 1087 186 1103 186 L 1119 186 1118.983 158.750 C 1118.970 139.230, 1118.567 129.622, 1117.562 124.878 C 1114.639 111.091, 1106.383 99.781, 1095.273 94.345 C 1090.437 91.979, 1088.112 91.513, 1080.033 91.288 C 1074.102 91.123, 1068.989 91.523, 1066.500 92.347 M 1161 92.563 C 1151.855 94.538, 1141.815 97.676, 1139.748 99.205 C 1138.107 100.419, 1138.264 101.305, 1142.247 113.319 C 1146.005 124.655, 1146.728 126.085, 1148.498 125.675 C 1149.599 125.420, 1154.059 124.264, 1158.410 123.106 C 1168.924 120.307, 1182.734 120.242, 1188.729 122.964 C 1191.151 124.063, 1193.806 126.278, 1194.942 128.146 C 1196.033 129.940, 1196.830 131.493, 1196.713 131.598 C 1196.596 131.702, 1193.575 131.170, 1190 130.415 C 1181.377 128.593, 1166.060 128.662, 1158.014 130.558 C 1150.052 132.435, 1144.505 135.591, 1139.569 141.055 C 1134.499 146.667, 1132.742 151.250, 1132.688 159 C 1132.596 172.292, 1141.521 182.652, 1156.500 186.644 C 1163.266 188.447, 1178.248 188.347, 1185.530 186.450 C 1192.187 184.716, 1200.362 179.904, 1202.693 176.346 C 1203.538 175.056, 1204.539 174, 1204.917 174 C 1205.295 174, 1207.155 176.695, 1209.052 179.989 L 1212.500 185.978 1220.750 185.989 L 1229 186 1228.983 157.250 C 1228.964 125.596, 1228.144 118.710, 1223.349 109.901 C 1216.339 97.021, 1201.849 90.915, 1178.685 91.079 C 1172.533 91.123, 1164.575 91.791, 1161 92.563 M 819.017 120.750 C 819.041 158.045, 820.772 165.534, 832.150 177.565 C 839.806 185.660, 844.874 187.500, 859.521 187.500 C 871.093 187.500, 871.792 187.377, 878.228 184.209 C 882.691 182.011, 886.508 179.129, 889.707 175.540 L 894.500 170.164 898.922 178.082 L 903.344 186 912.172 186 L 921 186 921 139.500 L 921 93 905 93 L 889 93 889 118.788 C 889 143.545, 888.910 144.754, 886.750 149.030 C 881.214 159.989, 866.651 162.100, 856.963 153.348 C 854.689 151.293, 852.613 148.268, 852.025 146.152 C 851.466 144.138, 851.009 131.395, 851.006 117.750 L 851 93 835 93 L 819 93 819.017 120.750 M 545.315 122.102 C 542.166 123.013, 536 128.292, 536 130.077 C 536 130.605, 543.278 131, 553 131 C 571.540 131, 572.411 130.684, 567.476 125.749 C 563.325 121.598, 552.955 119.891, 545.315 122.102 M 742.459 122.880 C 736.959 125.378, 733.268 130.030, 732.448 135.498 C 730.644 147.526, 737.087 156.275, 748.766 157.659 C 760.805 159.085, 770 151.221, 770 139.500 C 770 136.990, 769.386 133.467, 768.636 131.671 C 764.907 122.747, 752.169 118.469, 742.459 122.880 M 1173.185 148.989 C 1166.204 150.642, 1162.641 157.555, 1166.820 161.337 C 1169.122 163.420, 1177.992 165.142, 1182.252 164.332 C 1189.296 162.993, 1194.590 158.550, 1195.161 153.500 C 1195.478 150.699, 1195.202 150.422, 1191 149.330 C 1185.851 147.992, 1178.030 147.843, 1173.185 148.989" stroke="none" fill="#181818" fill-rule="evenodd"/><path d="" stroke="none" fill="#1c1c1c" fill-rule="evenodd"/><path d="M 143.392 176 C 143.392 183.425, 143.549 186.463, 143.742 182.750 C 143.934 179.037, 143.934 172.963, 143.742 169.250 C 143.549 165.537, 143.392 168.575, 143.392 176 M 151.996 176.203 C 151.723 183.740, 151.852 189.554, 152.281 189.122 C 152.711 188.691, 152.934 182.524, 152.777 175.419 L 152.492 162.500 151.996 176.203" stroke="none" fill="#a776fc" fill-rule="evenodd"/></svg>