<?xml version="1.0" standalone="no"?>
<!DOCTYPE svg PUBLIC "-//W3C//DTD SVG 20010904//EN"
 "http://www.w3.org/TR/2001/REC-SVG-20010904/DTD/svg10.dtd">
<svg version="1.0" xmlns="http://www.w3.org/2000/svg"
 width="986.000000pt" height="151.000000pt" viewBox="0 0 986.000000 151.000000"
 preserveAspectRatio="xMidYMid meet">

<g transform="translate(0.000000,151.000000) scale(0.100000,-0.100000)"
fill="#000000" stroke="none">
<path d="M9520 770 l0 -740 170 0 170 0 0 740 0 740 -170 0 -170 0 0 -740z"/>
<path d="M10 741 l0 -711 180 0 180 0 0 204 0 204 248 4 c219 4 254 7 313 26
234 77 367 296 331 545 -27 189 -160 348 -342 409 -62 21 -83 22 -487 26
l-423 3 0 -710z m827 353 c97 -72 97 -237 1 -306 -32 -22 -41 -23 -250 -26
l-218 -3 0 181 0 181 219 -3 c205 -3 222 -4 248 -24z"/>
<path d="M2769 1348 c0 -2 -15 -70 -32 -153 l-32 -150 -112 -3 -113 -3 0 -139
0 -140 109 0 109 0 4 -228 3 -228 33 -66 c34 -70 106 -144 172 -178 100 -51
245 -65 403 -40 76 13 78 13 73 39 -3 14 -8 66 -11 116 -3 50 -9 104 -11 121
-6 31 -6 32 -42 22 -66 -19 -183 -15 -219 7 -56 33 -63 62 -63 259 l0 176 175
0 175 0 0 140 0 140 -175 0 -175 0 0 155 0 155 -135 0 c-74 0 -135 -1 -136 -2z"/>
<path d="M1780 1060 c-213 -25 -382 -159 -441 -350 -26 -84 -28 -233 -4 -317
48 -165 195 -305 376 -357 139 -41 362 -37 504 8 128 41 123 29 90 187 -15 74
-31 138 -35 142 -4 5 -23 2 -43 -6 -76 -32 -186 -49 -290 -45 -87 3 -111 8
-159 31 -53 26 -98 67 -98 88 0 5 162 9 360 9 l360 0 0 93 c0 108 -18 187 -62
269 -96 181 -312 277 -558 248z m221 -336 c19 -11 42 -35 51 -54 l18 -35 -196
-3 c-109 -1 -199 0 -202 2 -6 7 27 57 52 78 34 29 76 38 162 35 58 -2 90 -9
115 -23z"/>
<path d="M3975 1060 c-171 -20 -306 -99 -394 -231 -57 -85 -82 -173 -83 -284
0 -169 37 -262 151 -375 116 -115 228 -160 402 -162 116 -1 181 13 276 59 125
61 223 173 264 303 29 91 29 240 0 331 -78 246 -329 393 -616 359z m173 -325
c80 -34 121 -102 122 -200 0 -79 -30 -139 -88 -180 -36 -25 -55 -30 -115 -33
-61 -3 -79 0 -117 21 -25 13 -58 43 -75 66 -25 36 -30 54 -33 115 -4 79 13
129 60 173 55 52 170 69 246 38z"/>
<path d="M6775 1060 c-104 -15 -194 -72 -262 -164 -25 -33 -46 -62 -48 -64 -1
-2 -31 47 -65 108 l-62 110 -89 0 -89 0 0 -510 0 -510 170 0 170 0 0 235 c0
263 8 317 54 378 41 54 140 106 219 114 l57 6 0 153 c0 85 -1 153 -2 153 -2
-1 -25 -5 -53 -9z"/>
<path d="M7587 1060 c-89 -11 -195 -68 -260 -140 -30 -33 -56 -60 -60 -60 -3
0 -29 43 -59 95 l-53 95 -87 0 -88 0 0 -510 0 -510 170 0 170 0 0 288 c0 283
0 290 23 333 15 29 40 54 71 74 85 52 216 36 283 -37 49 -53 53 -78 53 -378
l0 -280 171 0 171 0 -5 323 c-5 352 -8 374 -70 490 -85 161 -242 240 -430 217z"/>
<path d="M8670 1060 c-139 -13 -356 -78 -347 -104 2 -6 24 -66 47 -134 39
-112 45 -123 64 -117 136 40 180 47 276 49 122 1 184 -17 225 -65 30 -36 35
-85 8 -74 -83 31 -304 40 -403 16 -179 -44 -281 -159 -280 -315 2 -184 165
-307 408 -307 157 -1 238 27 330 114 32 31 56 47 60 41 4 -6 25 -39 47 -72
l40 -62 78 0 77 0 0 313 c0 328 -7 398 -49 491 -27 63 -96 133 -161 166 -98
50 -271 74 -420 60z m240 -623 c30 -10 35 -17 38 -49 3 -30 -3 -44 -33 -77
-46 -50 -87 -64 -180 -59 -55 2 -81 9 -101 24 -62 46 -51 113 26 152 36 18 60
22 130 21 47 0 101 -5 120 -12z"/>
<path d="M4810 763 c0 -367 15 -458 90 -567 74 -109 166 -169 280 -184 168
-23 308 35 416 172 l31 39 57 -96 57 -97 89 0 90 0 0 510 0 510 -170 0 -170 0
0 -283 0 -283 -26 -53 c-17 -34 -41 -62 -67 -79 -36 -24 -50 -27 -123 -27 -76
0 -86 2 -126 30 -23 17 -53 49 -65 70 -22 39 -23 48 -23 333 l0 292 -170 0
-170 0 0 -287z"/>
</g>
</svg>
