<svg xmlns="http://www.w3.org/2000/svg" width="690" height="690" viewBox="0 0 690 690" version="1.1"><path d="M 312.500 243 C 314.648 245.200, 316.631 247, 316.906 247 C 317.181 247, 315.648 245.200, 313.500 243 C 311.352 240.800, 309.369 239, 309.094 239 C 308.819 239, 310.352 240.800, 312.500 243 M 499.750 262.706 C 500.988 262.944, 503.012 262.944, 504.250 262.706 C 505.488 262.467, 504.475 262.272, 502 262.272 C 499.525 262.272, 498.512 262.467, 499.750 262.706 M 242.453 272.250 L 238.500 276.500 242.750 272.547 C 246.702 268.871, 247.460 268, 246.703 268 C 246.540 268, 244.627 269.913, 242.453 272.250 M 479.946 271.750 L 476.500 275.500 480.250 272.054 C 482.313 270.158, 484 268.471, 484 268.304 C 484 267.540, 483.154 268.260, 479.946 271.750 M 333.343 292.500 C 333.346 296.900, 333.522 298.576, 333.733 296.224 C 333.945 293.872, 333.942 290.272, 333.727 288.224 C 333.512 286.176, 333.339 288.100, 333.343 292.500 M 480 313.500 C 481.866 315.425, 483.617 317, 483.892 317 C 484.167 317, 482.866 315.425, 481 313.500 C 479.134 311.575, 477.383 310, 477.108 310 C 476.833 310, 478.134 311.575, 480 313.500 M 499.250 322.716 C 500.762 322.945, 503.238 322.945, 504.750 322.716 C 506.262 322.487, 505.025 322.300, 502 322.300 C 498.975 322.300, 497.738 322.487, 499.250 322.716 M 313 341.500 C 310.571 343.975, 308.809 346, 309.084 346 C 309.359 346, 311.571 343.975, 314 341.500 C 316.429 339.025, 318.191 337, 317.916 337 C 317.641 337, 315.429 339.025, 313 341.500 M 379.978 348.965 C 367.435 350.607, 356.359 356.471, 347.500 366.159 C 341.991 372.184, 339.632 375.159, 339.245 376.571 C 339.106 377.082, 337.816 380.875, 336.380 385 C 327.971 409.152, 339.652 437.575, 362.458 448.456 C 366.331 450.304, 370.288 452.068, 371.250 452.377 C 372.873 452.896, 373 455.486, 373 487.983 L 373 523.029 376.355 526.690 C 379.365 529.974, 380.317 530.390, 385.605 530.731 C 390.291 531.032, 392.179 530.684, 394.810 529.033 C 400.769 525.294, 401 523.707, 401 486.501 C 401 455.433, 401.130 452.892, 402.750 452.331 C 420.884 446.046, 435.348 430.093, 439.041 412.303 C 440.673 404.442, 439.785 391.833, 437.083 384.500 C 435.867 381.200, 434.758 377.825, 434.620 377 C 434.288 375.034, 430.885 370.925, 423.438 363.502 C 412.350 352.450, 395.754 346.899, 379.978 348.965 M 301.481 405.250 L 291.500 415.500 301.750 405.519 C 307.387 400.029, 312 395.417, 312 395.269 C 312 394.545, 310.752 395.730, 301.481 405.250 M 470 403.500 C 474.651 408.175, 478.681 412, 478.956 412 C 479.231 412, 475.651 408.175, 471 403.500 C 466.349 398.825, 462.319 395, 462.044 395 C 461.769 395, 465.349 398.825, 470 403.500 M 521.272 490 C 521.272 492.475, 521.467 493.488, 521.706 492.250 C 521.944 491.012, 521.944 488.988, 521.706 487.750 C 521.467 486.512, 521.272 487.525, 521.272 490 M 509.453 517.250 L 505.500 521.500 509.750 517.547 C 513.702 513.871, 514.460 513, 513.703 513 C 513.540 513, 511.627 514.913, 509.453 517.250 M 358.250 543.716 C 359.762 543.945, 362.238 543.945, 363.750 543.716 C 365.262 543.487, 364.025 543.300, 361 543.300 C 357.975 543.300, 356.738 543.487, 358.250 543.716 M 413.250 543.716 C 414.762 543.945, 417.238 543.945, 418.750 543.716 C 420.262 543.487, 419.025 543.300, 416 543.300 C 412.975 543.300, 411.738 543.487, 413.250 543.716" stroke="none" fill="#ae82ff" fill-rule="evenodd"/><path d="M 249.561 224.581 C 225.912 229.886, 207.302 245.639, 198.924 267.444 C 182.034 311.406, 212.533 358.843, 259.535 361.716 C 272.098 362.484, 282.872 360.241, 294.925 354.347 C 302.661 350.565, 305.797 348.284, 312.425 341.620 C 321.395 332.600, 325.829 325.770, 329.815 314.835 C 332.275 308.082, 332.485 306.309, 332.455 292.500 C 332.424 278.854, 332.183 276.838, 329.781 270.165 C 325.972 259.582, 321.515 252.619, 313 243.947 C 304.525 235.317, 295.864 230.015, 284.167 226.298 C 274.168 223.121, 259.347 222.386, 249.561 224.581 M 256 263.935 C 239.613 268.938, 230.716 285.190, 235.449 301.474 C 237.729 309.314, 246.017 317.849, 253.894 320.465 C 276.272 327.897, 298.352 308, 292.508 285.667 C 289.807 275.344, 283.127 268.064, 273.124 264.541 C 268.543 262.928, 260.260 262.635, 256 263.935 M 491.324 264.638 C 489.028 265.451, 485.069 267.948, 482.527 270.185 C 469.836 281.356, 468.641 299.711, 479.796 312.118 C 485.766 318.758, 490.784 321.204, 499.621 321.781 C 512.402 322.616, 522.923 316.787, 528.785 305.623 C 531.070 301.271, 531.469 299.296, 531.433 292.500 C 531.399 285.854, 530.943 283.633, 528.743 279.377 C 525.459 273.024, 518.368 266.654, 512.266 264.575 C 506.571 262.634, 496.896 262.663, 491.324 264.638 M 434.825 378.657 C 439.864 388.535, 441.369 403.323, 438.469 414.458 C 433.992 431.646, 420.180 446.290, 402.750 452.331 C 401.130 452.892, 401 455.433, 401 486.501 C 401 523.707, 400.769 525.294, 394.810 529.033 C 392.179 530.684, 390.291 531.032, 385.605 530.731 C 380.317 530.390, 379.365 529.974, 376.355 526.690 L 373 523.029 373 487.983 C 373 455.486, 372.873 452.896, 371.250 452.377 C 359.808 448.712, 346.845 438.710, 341.321 429.285 C 332.674 414.530, 331.246 397.098, 337.429 381.790 C 340.201 374.927, 339.995 374.907, 330.730 381.152 C 305.029 398.476, 273.917 433.357, 260.627 459.748 C 239.237 502.223, 258.948 528.919, 319.059 538.888 C 337.857 542.005, 349.142 542.946, 376 543.633 C 418.928 544.732, 456.187 541.044, 479.920 533.348 C 498.444 527.341, 512.162 517.475, 517.717 506.166 C 520.227 501.057, 520.499 499.468, 520.493 490 C 520.487 480.790, 520.104 478.428, 517.371 470.773 C 515.657 465.974, 512.060 458.184, 509.377 453.462 C 493.912 426.242, 460.002 390.319, 437.652 377.480 L 432.804 374.695 434.825 378.657" stroke="none" fill="#fbfbfc" fill-rule="evenodd"/><path d="M 169.500 39.033 C 120.807 49.270, 84.923 85.309, 75.016 133.923 C 73.332 142.184, 73 147.692, 73 167.337 L 73 190.860 51.250 191.180 C 26.618 191.542, 26.169 191.658, 17.738 199.832 C 10.842 206.517, 9 212.140, 9 226.500 C 9 240.860, 10.842 246.483, 17.738 253.168 C 26.169 261.342, 26.618 261.458, 51.250 261.820 L 73 262.140 73 347 L 73 431.860 51.250 432.180 C 26.618 432.542, 26.169 432.658, 17.738 440.832 C 10.842 447.517, 9 453.140, 9 467.500 C 9 481.860, 10.842 487.483, 17.738 494.168 C 26.168 502.341, 26.620 502.458, 51.229 502.820 L 72.959 503.139 73.229 569.398 L 73.500 635.657 76.248 639.259 C 77.759 641.240, 80.459 643.904, 82.248 645.180 L 85.500 647.500 325.500 647.760 C 540.347 647.992, 566.391 647.855, 574 646.445 C 623.531 637.269, 660.910 600.514, 670.984 551.077 C 672.965 541.356, 673 537.761, 673 342.500 C 673 147.239, 672.965 143.644, 670.984 133.923 C 661.035 85.099, 624.901 48.965, 576.077 39.016 C 566.354 37.034, 562.892 37.001, 372.343 37.070 C 186.170 37.138, 178.144 37.216, 169.500 39.033 M 250.500 223.707 C 230.924 228.361, 215.274 239.019, 204.947 254.729 C 197.771 265.646, 194.878 275.001, 194.260 289.293 C 193.640 303.634, 195.244 311.565, 201.280 324 C 204.646 330.935, 207.072 334.166, 214.453 341.547 C 228.999 356.094, 243.217 361.956, 264.020 361.985 C 294.934 362.029, 320.956 343.108, 330.705 313.500 C 332.998 306.537, 333.342 303.815, 333.361 292.500 C 333.381 280.862, 333.094 278.662, 330.618 271.500 C 322.363 247.618, 304.662 230.924, 281.244 224.935 C 274.049 223.094, 256.094 222.378, 250.500 223.707 M 494.718 263.033 C 481.291 266.402, 472.002 278.276, 472.001 292.072 C 471.999 304.697, 477.849 314.323, 488.786 319.694 C 493.525 322.021, 495.780 322.496, 502 322.479 C 514.498 322.445, 523.372 316.946, 528.953 305.778 C 538.532 286.608, 525.777 264.196, 504.343 262.536 C 501.129 262.287, 496.798 262.511, 494.718 263.033 M 258.344 264.031 C 244.736 266.758, 234.669 278.910, 234.639 292.648 C 234.628 297.592, 235.267 300.100, 237.905 305.459 C 243.051 315.912, 251.497 321.146, 263.530 321.338 C 269.332 321.431, 271.552 320.965, 276.244 318.669 C 287.444 313.189, 293.717 302.525, 292.760 290.593 C 291.353 273.075, 275.247 260.643, 258.344 264.031 M 379.978 348.965 C 371.973 350.013, 364.933 352.593, 358.313 356.905 C 352.997 360.368, 343.715 369.254, 341.436 373.063 C 340.921 373.923, 337.639 376.348, 334.141 378.452 C 301.562 398.050, 260.775 447.818, 253.409 476.962 C 250.971 486.608, 251.787 499, 255.338 506.258 C 265.349 526.720, 296.995 538.981, 350.412 543.095 C 370.614 544.650, 427.523 543.721, 443 541.582 C 477.263 536.849, 497.820 529.333, 510.055 517.069 C 516.599 510.509, 519.726 504.509, 521.183 495.713 C 523.994 478.751, 512.869 453.318, 490.477 425.516 C 473.879 404.908, 457.308 389.418, 440.380 378.686 C 435.386 375.521, 430.675 371.761, 429.910 370.332 C 427.623 366.058, 417.347 357.442, 410.709 354.231 C 401.119 349.593, 389.883 347.667, 379.978 348.965" stroke="none" fill="#9c65fc" fill-rule="evenodd"/></svg>